<?xml version="1.0" encoding="UTF-8" standalone="no"?>
<!DOCTYPE svg PUBLIC "-//W3C//DTD SVG 1.1//EN"
 "http://www.w3.org/Graphics/SVG/1.1/DTD/svg11.dtd">
<!-- Generated by graphviz version 2.43.0 (0)
 -->
<!-- Title: %3 Pages: 1 -->
<svg width="281pt" height="85pt"
 viewBox="0.00 0.00 281.00 85.00" xmlns="http://www.w3.org/2000/svg" xmlns:xlink="http://www.w3.org/1999/xlink">
<g id="graph0" class="graph" transform="scale(1 1) rotate(0) translate(4 81)">
<title>%3</title>
<polygon fill="white" stroke="transparent" points="-4,4 -4,-81 277,-81 277,4 -4,4"/>
<!-- 3 -->
<g id="node1" class="node">
<title>3</title>
<path fill="none" stroke="black" d="M257,-40C257,-40 227,-40 227,-40 221,-40 215,-34 215,-28 215,-28 215,-16 215,-16 215,-10 221,-4 227,-4 227,-4 257,-4 257,-4 263,-4 269,-10 269,-16 269,-16 269,-28 269,-28 269,-34 263,-40 257,-40"/>
<path fill="none" stroke="black" d="M261,-44C261,-44 223,-44 223,-44 217,-44 211,-38 211,-32 211,-32 211,-12 211,-12 211,-6 217,0 223,0 223,0 261,0 261,0 267,0 273,-6 273,-12 273,-12 273,-32 273,-32 273,-38 267,-44 261,-44"/>
<text text-anchor="middle" x="242" y="-18.3" font-family="Times,serif" font-size="14.00">3</text>
</g>
<!-- 3&#45;&gt;3 -->
<g id="edge1" class="edge">
<title>3&#45;&gt;3</title>
<path fill="none" stroke="black" d="M230.88,-44.21C229.97,-53.8 233.68,-62 242,-62 247.07,-62 250.43,-58.95 252.07,-54.4"/>
<polygon fill="black" stroke="black" points="255.58,-54.52 253.12,-44.21 248.61,-53.8 255.58,-54.52"/>
<text text-anchor="start" x="238.5" y="-65.8" font-family="Times,serif" font-size="14.00">r</text>
</g>
<!-- 1 -->
<g id="node2" class="node">
<title>1</title>
<path fill="none" stroke="black" d="M141,-40C141,-40 111,-40 111,-40 105,-40 99,-34 99,-28 99,-28 99,-16 99,-16 99,-10 105,-4 111,-4 111,-4 141,-4 141,-4 147,-4 153,-10 153,-16 153,-16 153,-28 153,-28 153,-34 147,-40 141,-40"/>
<text text-anchor="middle" x="126" y="-18.3" font-family="Times,serif" font-size="14.00">1</text>
</g>
<!-- 1&#45;&gt;3 -->
<g id="edge4" class="edge">
<title>1&#45;&gt;3</title>
<path fill="none" stroke="black" d="M153.15,-22C167.28,-22 185.03,-22 200.87,-22"/>
<polygon fill="black" stroke="black" points="200.94,-25.5 210.94,-22 200.94,-18.5 200.94,-25.5"/>
<text text-anchor="start" x="171" y="-25.8" font-family="Times,serif" font-size="14.00">b,a</text>
</g>
<!-- 2 -->
<g id="node3" class="node">
<title>2</title>
<polygon fill="#595959" stroke="#595959" points="54,-14.54 54,-29.46 38.18,-40 15.82,-40 0,-29.46 0,-14.54 15.82,-4 38.18,-4 54,-14.54"/>
<text text-anchor="middle" x="27" y="-18.3" font-family="Times,serif" font-size="14.00">2</text>
</g>
<!-- 2&#45;&gt;1 -->
<g id="edge3" class="edge">
<title>2&#45;&gt;1</title>
<path fill="none" stroke="black" d="M54.25,-22C64.82,-22 77.18,-22 88.6,-22"/>
<polygon fill="black" stroke="black" points="88.73,-25.5 98.73,-22 88.73,-18.5 88.73,-25.5"/>
<text text-anchor="start" x="72" y="-25.8" font-family="Times,serif" font-size="14.00">a</text>
</g>
<!-- 2&#45;&gt;2 -->
<g id="edge2" class="edge">
<title>2&#45;&gt;2</title>
<path fill="none" stroke="black" d="M18.32,-40.15C16.98,-49.54 19.88,-58 27,-58 31.34,-58 34.11,-54.86 35.31,-50.28"/>
<polygon fill="black" stroke="black" points="38.82,-50.27 35.68,-40.15 31.82,-50.02 38.82,-50.27"/>
<text text-anchor="start" x="16" y="-61.8" font-family="Times,serif" font-size="14.00">b,a</text>
</g>
</g>
</svg>
